<?xml version="1.0" encoding="UTF-8"?>
<svg width="315px" height="315px" viewBox="0 0 315 315" version="1.1" xmlns="http://www.w3.org/2000/svg" xmlns:xlink="http://www.w3.org/1999/xlink">
    <title>auto delete wpjo icon</title>
    <g id="auto-delete-wpjo-icon" stroke="none" stroke-width="1" fill="none" fill-rule="evenodd">
        <g id="logo-(1)" transform="translate(0.000000, -0.001260)" fill="#6CFAE4" fill-rule="nonzero">
            <g id="path30">
                <path d="M160.104438,0.00015750063 C245.889701,0.015750063 315,1.5750063 315,157.50063 C315,315.00126 244.486482,315.00126 157.499834,315.00126 L154.895231,315.001103 C69.1099738,314.98551 0,313.426254 0,157.50063 C0,0 70.5131862,0 157.499834,0 Z" id="path-3"></path>
            </g>
        </g>
        <g id="Group" transform="translate(57.000000, 46.000000)">
            <g id="noun_Trash_2884087" fill="#1A1A1A" fill-rule="nonzero">
                <g id="Group">
                    <path d="M51.7179079,31.795351 L10.7053243,0.13754684 C10.207928,-0.238247239 9.24704888,0.183097638 8.5800857,1.07133819 C7.90181805,1.95957874 7.7435556,3.00724708 8.22964742,3.39442886 L49.242231,35.0522331 C49.7283228,35.4280271 50.6892019,34.9952946 51.3674696,34.107054 C52.0457372,33.2188135 52.2039997,32.1825328 51.7179079,31.795351 Z" id="Path"></path>
                    <polygon id="Path" points="23.5698006 8.25697648 41.3404129 21.9791542 42.9230374 17.6518284 27.7298422 5.91111041"></polygon>
                    <path d="M0,36.6806741 L5.30179208,91 L41.3064995,91 L46.8004674,36.6806741 L0,36.6806741 Z M33.0655476,47.4876008 C33.0655476,45.2100609 36.5021037,45.2100609 36.5021037,47.4876008 L36.5021037,80.9104984 C36.5021037,83.1880382 33.0655476,83.1880382 33.0655476,80.9104984 L33.0655476,47.4876008 Z M25.4802545,47.4876008 C25.4802545,45.2100609 28.9168106,45.2100609 28.9168106,47.4876008 L28.9168106,80.9104984 C28.9168106,83.1880382 25.4802545,83.1880382 25.4802545,80.9104984 L25.4802545,47.4876008 Z M10.3096682,47.4876008 C10.3096682,45.2100609 13.7462243,45.2100609 13.7462243,47.4876008 L13.7462243,80.9104984 C13.7462243,83.1880382 10.3096682,83.1880382 10.3096682,80.9104984 L10.3096682,47.4876008 Z M17.8949613,47.4876008 C17.8949613,45.2100609 21.3315174,45.2100609 21.3315174,47.4876008 L21.3315174,80.9104984 C21.3315174,83.1880382 17.8949613,83.1880382 17.8949613,80.9104984 L17.8949613,47.4876008 Z" id="Shape"></path>
                </g>
                <polygon id="Path" points="5.2 21.6598656 12.6432955 33.4712644 23.92 28.5097731 15.0126328 15.6896552"></polygon>
            </g>
            <circle id="Oval" fill="#6CFAE4" cx="47.5" cy="75.5" r="22.5"></circle>
            <g id="noun_timer_2805469" transform="translate(33.000000, 61.000000)" fill="#1A1A1A" fill-rule="nonzero">
                <path d="M4.60238334e-06,17.2914313 C-0.00493481051,23.172102 3.96644759,28.2866273 9.597777,29.6518694 C15.2291064,31.0171114 21.0464567,28.2757361 23.6567549,23.0266994 C26.267053,17.7776626 24.987088,11.3948305 20.5634221,7.6011033 L21.5467622,6.24660918 L21.8672675,6.48666243 C21.9893776,6.57812836 22.1422578,6.61657622 22.2922762,6.5935479 C22.4422947,6.57051959 22.5771626,6.48790147 22.6672105,6.36386859 L23.2535774,5.55621076 C23.4410904,5.29792626 23.3869661,4.9341426 23.1326871,4.74367489 L21.1587541,3.26516408 C21.0366506,3.17370136 20.8837773,3.13525518 20.7337661,3.15828362 C20.583755,3.18131205 20.4488945,3.26392863 20.3588537,3.38795793 L19.7724837,4.19564242 C19.6824359,4.31967178 19.644584,4.47495638 19.6672555,4.62733404 C19.6899269,4.77971171 19.7712644,4.91669991 19.8933739,5.00816163 L20.2138628,5.24823821 L19.2309623,6.60212257 C17.55998,5.5117076 15.6561525,4.84373724 13.6788409,4.65412431 L13.6788409,3.08426699 L15.7636067,2.4970803 C15.9297661,2.45026443 16.0447826,2.29662689 16.0447906,2.12147834 L16.0447906,0.389756255 C16.0447743,0.174498872 15.8729772,0 15.6610568,0 L9.33800042,0 C9.12608788,0 8.95430414,0.174506864 8.95430595,0.389756255 L8.95430595,2.12147834 C8.95429717,2.29663265 9.06932049,2.45027935 9.23548989,2.4970803 L11.3202163,3.08426699 L11.3202163,4.65286815 C9.34197805,4.84051678 7.43693362,5.50751558 5.76502776,6.59786429 L4.78517139,5.24821821 L5.10567673,5.00814164 C5.35994659,4.81768008 5.41408641,4.45391778 5.22660635,4.19562243 L4.6402133,3.38794793 C4.55017195,3.26391842 4.41531093,3.18130176 4.26529921,3.15827334 C4.11528748,3.13524492 3.96241374,3.17369119 3.84030966,3.26515409 L1.86643572,4.74367489 C1.61216385,4.93414259 1.55802437,5.29791008 1.74550609,5.55621076 L2.33189915,6.36386859 C2.42193719,6.4879016 2.55679802,6.57052109 2.70681052,6.59354973 C2.85682303,6.61657836 3.00969746,6.57812952 3.1317995,6.48666243 L3.45228843,6.24660918 L4.43238754,7.59658845 C1.61907888,10.0056666 -0.00310907706,13.5538423 4.60238334e-06,17.2914313 L4.60238334e-06,17.2914313 Z M23.2166047,17.2910647 C23.2166047,21.6939458 20.6057236,25.6633689 16.6010909,27.3483766 C12.5964583,29.0333843 7.98685761,28.1021383 4.92176369,24.9888822 C1.85666977,21.8756262 0.939709204,17.1934715 2.59846429,13.1257252 C4.25721937,9.05797894 8.16502193,6.40572172 12.4996483,6.40572172 C18.4155502,6.41250621 23.2097262,11.2820091 23.2166047,17.2910647 L23.2166047,17.2910647 Z M22.0288832,17.289662 C22.0308716,20.7491338 20.215024,23.9466864 17.2658108,25.6770085 C14.3165975,27.4073306 10.68244,27.4073306 7.73322675,25.6770085 C4.7840135,23.9466864 2.96816591,20.7491338 2.97016252,17.289662 L12.499527,17.289662 L12.499527,7.61359826 C17.7614239,7.61294858 22.0277039,11.9449093 22.0288832,17.289662 L22.0288832,17.289662 Z" id="Shape"></path>
            </g>
        </g>
        <text id="Auto-Delete-Applicat" font-family="CircularStd-Black, Circular Std" font-size="31" font-weight="800" line-spacing="32" letter-spacing="-0.93" fill="#000000">
            <tspan x="56" y="184">AUTO DELETE</tspan>
            <tspan x="56" y="216">APPLICATIONS</tspan>
        </text>
        <text id="FOR-WPJO" font-family="CircularStd-Black, Circular Std" font-size="23" font-weight="800" line-spacing="41" letter-spacing="-0.69" fill="#000000">
            <tspan x="57" y="239">FOR WPJO</tspan>
        </text>
    </g>
</svg>